<svg width="16" height="16" viewBox="0 0 16 16" fill="none" xmlns="http://www.w3.org/2000/svg">
<path d="M10.693 8.92973L14.785 4.83777L16 5.96075L10.6603 11.268L7.4242 7.99885L8.62533 6.86204L10.693 8.92973ZM8.6401 5.78789L6.323 7.98091L9.85341 11.5474H0.815896C0.368927 11.5474 0 11.1785 0 10.7244V5.26853C0 4.82156 0.368927 4.45264 0.815896 4.45264H9.90274C10.3497 4.45264 10.7002 4.82156 10.6931 5.26853L10.693 7.8408L8.6401 5.78789ZM6.12053 5.77675H4.68209L3.60325 7.2152L2.52442 5.77675H1.08597V10.0921H2.52442V7.93442L3.60325 9.31533L4.68209 7.93442V10.0921H6.12053V5.77675Z" fill="#BB262C"/>
</svg>
