<svg width="16" height="16" viewBox="0 0 16 16" fill="none" xmlns="http://www.w3.org/2000/svg">
<path d="M6.66665 2.66666H2.66665C1.92665 2.66666 1.33331 3.25999 1.33331 3.99999V12C1.33331 12.7313 1.93531 13.3333 2.66665 13.3333H13.3333C14.0646 13.3333 14.6666 12.7313 14.6666 12V5.33332C14.6666 4.59332 14.0666 3.99999 13.3333 3.99999H7.99998L6.66665 2.66666Z" fill="#0277BD"/>
<path fill-rule="evenodd" clip-rule="evenodd" d="M10.85 14.0767L9.15798 14.078V11.54L7.88932 13.1673L6.62065 11.54V14.078H4.92865V9.00267H6.62065L7.88932 10.6947L9.15798 9.00267L10.85 9.00067V14.0767Z" fill="#B3E5FC"/>
<path fill-rule="evenodd" clip-rule="evenodd" d="M13.376 14.4994L11.2733 11.54H12.542V9.00269H14.234V11.54H15.5026L13.376 14.4994Z" fill="#B3E5FC"/>
</svg>
