<svg width="20" height="20" viewBox="0 0 20 20" fill="none" xmlns="http://www.w3.org/2000/svg">
<path d="M13.2 1H5C2.79086 1 1 2.79086 1 5V15C1 17.2091 2.79086 19 5 19H13.2C15.4092 19 17.2 17.2091 17.2 15V5C17.2 2.79086 15.4092 1 13.2 1Z" stroke="white" stroke-width="1.5" stroke-linejoin="round"/>
<path d="M19 5.95001H17.2" stroke="white" stroke-width="1.5" stroke-linecap="round" stroke-linejoin="round"/>
<path d="M19 14.05H17.2" stroke="white" stroke-width="1.5" stroke-linecap="round" stroke-linejoin="round"/>
<path d="M11.3596 8.56463C11.2827 8.31534 11.1765 8.09221 11.0411 7.89524C10.9087 7.69519 10.7487 7.52438 10.5609 7.38281C10.3763 7.24124 10.1639 7.13506 9.92387 7.06428C9.68382 6.99041 9.42222 6.95348 9.13907 6.95348C8.63126 6.95348 8.17884 7.0812 7.78183 7.33665C7.38481 7.59209 7.07243 7.96757 6.84468 8.46307C6.62001 8.95549 6.50768 9.55563 6.50768 10.2635C6.50768 10.9775 6.62001 11.5823 6.84468 12.0778C7.06935 12.5733 7.38173 12.9503 7.78183 13.2088C8.18192 13.4643 8.64665 13.592 9.176 13.592C9.65612 13.592 10.0716 13.4996 10.4225 13.315C10.7764 13.1303 11.0488 12.8687 11.2396 12.5302C11.4304 12.1886 11.5258 11.7885 11.5258 11.3299L11.9136 11.3899H9.34681V10.0511H13.1831V11.1868C13.1831 11.9962 13.0108 12.6964 12.6661 13.2873C12.3214 13.8782 11.8474 14.3337 11.2442 14.6538C10.641 14.9708 9.94849 15.1293 9.16677 15.1293C8.2958 15.1293 7.531 14.9338 6.87238 14.543C6.21684 14.149 5.70441 13.5904 5.33509 12.8672C4.96885 12.1409 4.78573 11.2791 4.78573 10.282C4.78573 9.5187 4.89345 8.837 5.10889 8.23686C5.3274 7.63672 5.63209 7.12737 6.02295 6.70881C6.41381 6.28717 6.87238 5.96709 7.39866 5.74858C7.92494 5.52699 8.49738 5.41619 9.11599 5.41619C9.63919 5.41619 10.127 5.49313 10.5794 5.64702C11.0318 5.79782 11.4335 6.01326 11.7843 6.29332C12.1382 6.57339 12.4291 6.90578 12.6568 7.29048C12.8846 7.67519 13.0338 8.09991 13.1046 8.56463H11.3596Z" fill="white"/>
</svg>
